; OM File Header - Saved 2021/04/11 12:42:15
; (6.18 :patc (om-make-point 113 159) (om-make-point 896 23) (om-make-point 896 755) "" 183 0 "2021/04/05 18:37:44" "2021/04/11 12:42:15")
; End File Header
; External resources 
; (list (list (quote :sound) "#P\"../in-files/demo sounds/A_minor_short.wav\""))
(in-package :om)(load-lib-for (quote ("om-orchidea")))(setf *om-current-persistent* (om-load-patch1 "2. quantify" (quote ((let ((box (om-load-editor-box1 "VOICE" (quote voice) (quote ((om-load-inputfun (quote input-funbox) "object" "self" nil) (om-load-inputfun (quote input-funbox) "a list representing a rhythm tree" "tree" (list (quote ?) (list (list (list 4 4) (list 1 1 1 1))))) (om-load-inputfun (quote input-funbox) "a chord object, a list of chords, a list of midics, a list of lists of midics..." "chords" (list (let ((thechord (make-instance (quote chord) :lmidic (quote (6000)) :ldur (quote (1000)) :lvel (quote (100)) :loffset (quote (0)) :lchan (quote (1))))) (load-port-info thechord (quote (0))) (init-mus-color thechord (quote nil)) (set-extra-pairs thechord (quote nil)) (set-tonalite thechord nil) thechord))) (om-load-inputfun (quote input-funbox) "frequency of the quarter-note (default 60/mn)" "tempo" 60) (om-load-inputfun (quote input-funbox) "overlapping percentage between every successive chords, calculated from the second chord's duration" "legato" 100) (om-load-inputfun (quote input-funbox) "sub lists (one sub list per chord) indicating notes to be tied to notes of the same value, in a next chord" "ties" nil))) (om-make-point 102 722) (om-make-point 365 127) (let ((newobj (when (find-class (quote voice) nil) (make-instance (quote voice) :tree (quote (1 (((4 4) ((1 (-7 1)) (1 (4.0 -1)) (1 (-4 3)) (1 (1.0 -2))))))) :chords (load-obj-list-from-save (quote ((let ((thechord (make-instance (quote chord) :lmidic (quote (7100)) :ldur (quote (125)) :lvel (quote (40)) :loffset (quote (0)) :lchan (quote (1))))) (load-port-info thechord (quote (0))) (init-mus-color thechord (quote nil)) (set-extra-pairs thechord (quote nil)) (set-tonalite thechord nil) thechord) (let ((thechord (make-instance (quote chord) :lmidic (quote (7200)) :ldur (quote (429)) :lvel (quote (40)) :loffset (quote (0)) :lchan (quote (1))))) (load-port-info thechord (quote (0))) (init-mus-color thechord (quote nil)) (set-extra-pairs thechord (quote nil)) (set-tonalite thechord nil) thechord)))) :tempo (quote ((1/4 60) nil)) :legato 100 :ties (quote (nil nil)))))) (load-port-info newobj (quote nil)) (init-mus-color newobj (quote nil)) (set-extra-pairs newobj (quote nil)) (set-patch-pairs newobj (quote ((nil (om-load-patch-abs1 "patch" (quote nil) (quote nil) 6.18 nil "" (om-make-point 200 200) (om-make-point 400 500)))))) (set-name newobj nil) (set-tonalite newobj nil) newobj) nil nil (pairlis (quote (scale show-stems cursor-mode obj-mode score-mode winpos winsize mode grillestep notechancolor? zoom player inport outport deltapict cmnpref staff fontsize approx)) (list nil (quote t) (quote :normal) 1 0 (om-make-point 400 23) (om-make-point 589 539) 0 1000 nil 1 (quote :midi-player) nil nil (om-make-point 0 0) (let ((newobj (make-instance (quote edition-values)))) (setf (paper-size newobj) (om-make-point 600 800)) (setf (top-margin newobj) 2) (setf (left-margin newobj) 1) (setf (right-margin newobj) 1) (setf (bottom-margin newobj) 1) (setf (orientation newobj) nil) (setf (scale newobj) nil) (setf (system-space newobj) (quote (1))) (setf (system-color newobj) (quote nil)) (setf (line-space newobj) 1) (setf (title newobj) nil) (setf (show-title? newobj) nil) (setf (show-page? newobj) nil) (setf (sheet-id newobj) nil) (setf (page-mode newobj) nil) newobj) (quote g) 24 2)) t nil nil nil))) (when (fboundp (quote set-active)) (set-active box nil)) box) (let ((box (om-load-boxcall (quote lispfun) "CAR" (quote car) (quote ((om-load-inputfun (quote input-funbox) "X" "X" nil))) (om-make-point 372 563) nil nil nil nil 1))) (when (fboundp (quote set-active)) (set-active box nil)) box) (let ((box (om-load-boxinstance "list" (let ((copy (make-instance (quote omlistinstance) :name "list" :icon 129))) (setf (instance copy) (list nil)) (setf (edition-params copy) (pairlis (quote (winsize winpos)) (list (om-make-point 335 275) (om-make-point 10 40)))) (setf (create-info copy) (quote ("2021/04/05 20:19:43" "--"))) (setf (doc copy) (str-with-nl "")) copy) (quote nil) (om-make-point 539/2 2079/4) nil (om-make-point 45 40)))) (when (fboundp (quote set-active)) (set-active box nil)) box) (let ((box (om-load-boxcall (quote lispfun) "ORCH-OUTPUT->POLY" (quote orch-output->poly) (quote ((om-load-inputfun (quote input-funbox) "ORCH-OUTPUT" "ORCH-OUTPUT" nil) (om-load-inputfun (quote input-funbox) "QUANTIZER" "QUANTIZER" nil))) (om-make-point 472 653) nil nil nil nil 1))) (when (fboundp (quote set-active)) (set-active box nil)) box) (let ((box (om-load-boxcomment "comment" (om-make-point 306 83) (quote "this feature is useful because it produces a poly score by quantizing, yet maintains the alignment of notes that originally sounded together.") "" (om-make-point 754 368) nil (om-make-color 0 0 0) (om-make-font "Verdana" 12 :family "Verdana" :style (quote (:plain)) :mode (quote nil))))) (when (fboundp (quote set-active)) (set-active box nil)) box) (let ((box (om-load-boxcomment "comment" (om-make-point 275 145) (quote "this can be any function that takes durations and returns a rhythm tree, but probably you'll use omquantify, with the options specified") "" (om-make-point 798 216) nil (om-make-color 0 0 0) (om-make-font "Verdana" 12 :family "Verdana" :style (quote (:plain)) :mode (quote nil))))) (when (fboundp (quote set-active)) (set-active box nil)) box) (let ((box (om-load-editor-box1 "A_minor_short.wav" (quote sound) (quote ((om-load-inputfun (quote input-funbox) "object" "self" nil) (om-load-inputfun (quote input-funbox) "a track index for multichannel mixing (0 = no specific track)" "tracknum" 0) (om-load-inputfun (quote input-funbox) "a list of markers (s)" "markers" nil))) (om-make-point 101/2 491/4) (om-make-point 186 96) (let ((newobj (let ((thesound (load-sound (om-make-pathname :directory (quote (:relative "in-files" "demo sounds")) :device :unspecific :host :unspecific :name "A_minor_short" :type "wav") 0 1.0 0))) (when thesound (setf (markers thesound) (quote nil))) thesound))) (load-port-info newobj (quote nil)) (init-mus-color newobj (quote nil)) (set-extra-pairs newobj (quote nil)) (set-patch-pairs newobj (quote nil)) (set-name newobj "A_minor_short.wav") (set-tonalite newobj nil) newobj) "x" nil (pairlis (quote (outport inport player zoom grillestep mode winsize winpos show-spectrum deltapict obj-mode cmnpref notechancolor? show-stems scale)) (list nil nil (quote :om-audio) 1 nil 0 (om-make-point 370 280) (om-make-point 400 20) nil (om-make-point 0 0) 0 (let ((newobj (make-instance (quote edition-values)))) (setf (paper-size newobj) (om-make-point 600 800)) (setf (top-margin newobj) 2) (setf (left-margin newobj) 1) (setf (right-margin newobj) 1) (setf (bottom-margin newobj) 1) (setf (orientation newobj) nil) (setf (scale newobj) nil) (setf (system-space newobj) (quote (1))) (setf (system-color newobj) (quote nil)) (setf (line-space newobj) 1) (setf (title newobj) nil) (setf (show-title? newobj) nil) (setf (show-page? newobj) nil) (setf (sheet-id newobj) nil) (setf (page-mode newobj) nil) newobj) nil (quote t) nil)) t nil nil nil))) (when (fboundp (quote set-active)) (set-active box nil)) box) (let ((box (om-load-boxcall (quote bastype) "aux 5" (quote t) (quote nil) (om-make-point 593/2 507/4) (om-make-point 98 30) "Vn Vn Va Vc" "\"Vn Vn Va Vc\"" nil))) (when (fboundp (quote set-active)) (set-active box nil)) box) (let ((box (om-load-boxcall (quote genfun) "ORCHESTRATE" (quote orchestrate) (quote ((om-load-inputfun (quote input-funbox) "source sound object" "SOUND" nil) (om-load-inputfun (quote input-funbox) "instrument abbreviations (space-delimited string)" "ORCHESTRATION" (quote *orchidea-default-orchestration*)) (om-load-inputfun (quote input-funbox) "onsets threshold (ex. static = 2, dynamic = 0.1)" "ONSETS-THRESHOLD" 0.1) (om-load-inputfunmenu1 (quote input-funmenu) "score-format" "OUTPUT-FORMAT" (quote :struct) (list (list "struct" (quote :struct)) (list "mf-info" (quote :mf-info)) (list "chord-seq" (quote :chord-seq)) (list "multi-seq" (quote :multi-seq)) (list "poly" (quote :poly)))))) (om-make-point 387/2 1567/4) (om-make-point 361 75) nil "&" nil 2))) (when (fboundp (quote set-active)) (set-active box nil)) box) (let ((box (om-load-boxcall (quote bastype) "aux 4" (quote t) (quote nil) (om-make-point 721/2 1267/4) (om-make-point 38 30) 0.2 "0.2" nil))) (when (fboundp (quote set-active)) (set-active box nil)) box) (let ((box (om-load-boxcall (quote bastype) "aux 3" (quote t) (quote nil) (om-make-point 772 103) (om-make-point 27 30) 8 "8" nil))) (when (fboundp (quote set-active)) (set-active box nil)) box) (let ((box (om-load-boxcall (quote bastype) "aux 2" (quote t) (quote nil) (om-make-point 703 73) (om-make-point 48 30) (list 4 4) "(4 4)" nil))) (when (fboundp (quote set-active)) (set-active box nil)) box) (let ((box (om-load-boxcall (quote bastype) "aux" (quote t) (quote nil) (om-make-point 644 93) (om-make-point 34 30) 60 "60" nil))) (when (fboundp (quote set-active)) (set-active box nil)) box) (let ((box (om-load-boxcall (quote genfun) "OMQUANTIFY" (quote omquantify) (quote ((om-load-inputfun (quote input-funbox) "durations (list)" "SELF" (list 100)) (om-load-inputfun (quote input-funbox) "tempi (number or list)" "TEMPI" 60) (om-load-inputfun (quote input-funbox) "list of time signature(s)" "MEASURES" (list 4 4)) (om-load-inputfun (quote input-funbox) "maximum subdivision" "MAX/" 8))) (om-make-point 637 414) nil nil "l" nil 1))) (when (fboundp (quote set-active)) (set-active box nil)) box))) (quote ((3 0 0 0 nil 0) (2 0 1 0 nil 0) (1 0 3 0 nil 0) (13 0 3 1 nil 0) (6 0 8 0 nil 0) (7 0 8 1 nil 0) (9 0 8 2 nil 0) (12 0 13 1 nil 0) (11 0 13 2 nil 0) (10 0 13 3 nil 0))) nil 6.18))
